Coordinates
version=1
nRows=21
nColumns=33
inDegrees=yes

Units are S.I. units (second, meters, Newtons, ...)
Angles are in degrees.

endheader
time	ground_thorax_rot_x	ground_thorax_rot_y	ground_thorax_rot_z	ground_thorax_tx	ground_thorax_ty	ground_thorax_tz	clav_prot_r	clav_elev_r	scapula_abduction_r	scapula_elevation_r	scapula_upward_rot_r	scapula_winging_r	shoulder_elv_r	plane_of_elev_r	axial_rot_r	elbow_flexion_r	pro_sup_r	wrist_flex_r	wrist_dev_r	clav_prot_l	clav_elev_l	scapula_abduction_l	scapula_elevation_l	scapula_upward_rot_l	scapula_winging_l	shoulder_elv_l	plane_of_elev_l	axial_rot_l	elbow_flexion_l	pro_sup_l	wrist_flex_l	wrist_dev_l
      4.55000000	     -3.60327701	      0.16867790	     11.63175565	     -0.10777485	      1.02849203	      0.00650744	     16.56206811	    -11.35116163	     42.78964200	    -12.22369705	     24.53828421	    -13.06287709	     -9.61666944	    -55.50350445	    119.83578780	    -35.07864417	   -144.78994014	     -1.06909667	      5.46404767	     24.75853471	    -11.48986064	    -36.95993926	     -6.00860148	    -25.84916455	     11.97991532	     55.07304411	     -0.62412665	      3.02690089	     11.46885339	     15.28685313	     16.14134270	     -4.79640547
      4.56000000	     -3.65850029	      0.24133392	     11.72599092	     -0.10797948	      1.02830143	      0.00637893	     16.58202720	    -11.39498481	     42.63528172	    -12.19145674	     24.26904319	    -13.00395578	     -9.64932216	    -55.47672525	    119.81250983	    -35.32662182	   -145.12329230	     -0.82083583	      5.46856304	     24.70247902	    -11.28573819	    -36.89720604	     -6.13095918	    -25.73395510	     11.99915806	     54.86312432	     -0.77591563	      3.29248962	     11.80752897	     14.71542406	     16.16507865	     -4.85247092
      4.57000000	     -3.66499493	      0.33361269	     11.75262269	     -0.10859658	      1.02825102	      0.00617425	     16.58017168	    -11.37994492	     42.61632065	    -12.17259758	     24.24428846	    -13.01014287	     -9.61296492	    -55.54217826	    119.78709766	    -35.32232567	   -145.13514294	     -0.81821193	      5.46173073	     24.68770094	    -11.24829631	    -36.87835230	     -6.15204308	    -25.70941874	     11.99801186	     54.88701115	     -0.78568254	      3.31572084	     11.83942630	     14.69681129	     16.15832302	     -4.85941525
      4.58000000	     -3.64488905	      0.47367913	     11.86304030	     -0.10869019	      1.02802637	      0.00608073	     16.55201796	    -11.40850033	     42.25609682	    -12.07849735	     23.78059286	    -12.88658720	     -9.71647842	    -55.56662689	    119.62925193	    -35.88498837	   -145.41207239	     -0.50261289	      5.40694877	     24.52264667	    -11.10328336	    -36.62487178	     -6.28115841	    -25.70296263	     11.88057780	     54.74620278	     -0.90306808	      3.68328389	     12.44525213	     14.42147996	     16.03645015	     -5.06695957
      4.59000000	     -3.56724133	      0.62469510	     11.93519512	     -0.10915510	      1.02787035	      0.00586202	     16.51948924	    -11.44067931	     42.00349875	    -12.03020757	     23.48432663	    -12.78701168	     -9.68749976	    -55.72010749	    119.48568817	    -36.23293898	   -145.60473076	     -0.30956734	      5.36984297	     24.41161548	    -11.03135352	    -36.45089341	     -6.35114251	    -25.70900881	     11.79398157	     54.63756333	     -0.91889530	      3.81888026	     12.85065533	     14.31633833	     15.95503684	     -5.21696393
      4.60000000	     -3.59555146	      0.74524137	     12.01714353	     -0.10944927	      1.02752112	      0.00577765	     16.47524469	    -11.45482147	     41.58631087	    -11.90868506	     22.96995455	    -12.65362931	     -9.87317334	    -55.78027583	    119.38830881	    -37.06209218	   -145.90143148	      0.06770225	      5.33825287	     24.24203846	    -10.91972946	    -36.18384944	     -6.46499623	    -25.72932019	     11.65599096	     54.66042881	     -1.09227878	      4.06491688	     13.46807936	     14.21854534	     15.80585467	     -5.45573787
      4.61000000	     -3.64215944	      0.87114160	     12.18798218	     -0.10984559	      1.02728289	      0.00568757	     16.40712905	    -11.62172271	     41.03180101	    -11.87874560	     22.31546532	    -12.37915998	    -10.08025426	    -55.94194677	    119.31793387	    -38.00475297	   -146.40152002	      0.54010635	      5.33899106	     24.03590442	    -10.86004993	    -35.84848716	     -6.55868230	    -25.79694495	     11.46256675	     54.72443983	     -1.35799290	      4.17807804	     14.08778694	     14.22720372	     15.59270471	     -5.75385538
      4.62000000	     -3.96776988	      1.12295933	     12.12552981	     -0.10991566	      1.02836729	      0.00515056	     15.95796629	    -13.04303542	     39.47491922	    -12.79598927	     21.14370918	    -10.91817366	     -9.63182288	    -56.43376168	    119.45196398	    -39.07390095	   -148.94868491	      1.38169068	      5.47567382	     23.59362771	    -10.89498000	    -35.11568412	     -6.51312297	    -25.71348969	     11.02267493	     55.20987737	     -1.76407370	      3.62626010	     14.66036387	     14.91684018	     14.96284378	     -6.49245712
      4.63000000	     -3.89268209	      1.26577484	     12.15200772	     -0.11026291	      1.02768021	      0.00521631	     15.80131188	    -12.78951835	     38.94194074	    -12.45592337	     20.69073904	    -10.88846462	     -9.86575691	    -56.44539345	    119.44511281	    -40.14099032	   -149.21603529	      1.62187707	      5.35421169	     23.43087796	    -10.71402732	    -34.86315663	     -6.70803332	    -25.77879843	     10.90735650	     55.15160912	     -1.81218180	      4.09557582	     15.53659912	     14.85398688	     14.90481269	     -6.68906081
      4.64000000	     -3.79578786	      1.41863671	     12.26543641	     -0.11067260	      1.02710471	      0.00526787	     15.68191750	    -12.66082299	     38.33558980	    -12.16933683	     20.04773243	    -10.75692337	    -10.12272034	    -56.59145716	    119.33131046	    -41.38416649	   -149.56387895	      1.95090992	      5.20862516	     23.24180056	    -10.64060175	    -34.55349734	     -6.86252502	    -25.95368245	     10.72911045	     55.15516039	     -1.93863840	      4.47411042	     16.48176911	     14.91915551	     14.79152675	     -6.91563237
      4.65000000	     -3.72320404	      1.55780775	     12.35609801	     -0.11108535	      1.02666130	      0.00534470	     15.55440462	    -12.61136691	     37.67821758	    -11.93052401	     19.34649065	    -10.56357203	    -10.40079603	    -56.76246841	    119.15188455	    -42.75270435	   -149.97184011	      2.34361295	      5.04545987	     23.02219467	    -10.59515613	    -34.18944502	     -7.01568631	    -26.17257097	     10.50788290	     55.24780651	     -2.09550924	      4.90205586	     17.50712010	     15.07207169	     14.64191127	     -7.17084292
      4.66000000	     -3.90598644	      1.77165885	     12.39669481	     -0.11144478	      1.02756083	      0.00507708	     15.21066533	    -13.92156850	     36.20843265	    -12.69013750	     18.00974907	     -9.22269236	    -10.35469897	    -57.48650181	    118.87147206	    -44.49073557	   -152.25304111	      2.96513064	      4.54953836	     22.65314166	    -10.84962378	    -33.53980997	     -7.09483743	    -26.76805856	     10.02616626	     56.16081027	     -2.32395196	      5.09152001	     18.62880273	     16.91479223	     14.37384000	     -7.75843830
      4.67000000	     -3.81962257	      1.86006436	     12.43963103	     -0.11167193	      1.02684508	      0.00529080	     14.93569276	    -13.55651837	     35.43922676	    -12.21812401	     17.46191804	     -9.15286135	    -10.73173118	    -57.46071034	    118.77414974	    -45.86489395	   -152.61232400	      3.33163344	      4.41537744	     22.38239929	    -10.58839547	    -33.11820135	     -7.38232879	    -26.87086405	      9.82969311	     56.02605246	     -2.39430192	      5.97384056	     19.72677673	     16.94056864	     14.33440201	     -8.05099995
      4.68000000	     -3.94351571	      2.03309863	     12.48991657	     -0.11201986	      1.02729178	      0.00511582	     14.56273866	    -14.54647997	     33.99969989	    -12.71561475	     16.19586415	     -8.00483589	    -10.87103139	    -58.17978159	    118.56028026	    -47.72157493	   -155.21636890	      4.00625809	      3.70658619	     22.11134082	    -10.57373615	    -32.66667914	     -7.62799376	    -27.33767914	      9.53285098	     56.53958443	     -2.44249105	      6.88741682	     20.89265990	     19.35850990	     14.67467432	     -9.07375818
      4.69000000	     -3.83574651	      2.09560121	     12.54120358	     -0.11228670	      1.02671565	      0.00545467	     14.26336139	    -14.10035039	     33.18594980	    -12.15832697	     15.63042845	     -7.96832307	    -11.28128826	    -58.06411870	    118.36233506	    -49.12643554	   -155.51167870	      4.37468998	      3.58407527	     21.81705071	    -10.34818337	    -32.19862969	     -7.88020741	    -27.42637036	      9.30040680	     56.37035601	     -2.55050906	      8.00927312	     21.94558018	     19.37623328	     14.62685271	     -9.35665031
      4.70000000	     -3.90453803	      2.14963067	     12.56894517	     -0.11253978	      1.02714148	      0.00529496	     13.94702089	    -14.89406842	     31.94676848	    -12.51789848	     14.50399311	     -7.01537251	    -11.57880631	    -58.76048713	    117.96251983	    -50.90589012	   -158.00964737	      5.07735800	      2.96531681	     21.52139021	    -10.14321414	    -31.72514570	     -8.20372330	    -27.70524800	      9.03902853	     56.50533560	     -2.41157841	      9.94710187	     22.89100571	     22.47549704	     15.45975719	    -10.86996430
      4.71000000	     -3.75949269	      2.21571518	     12.48740668	     -0.11283373	      1.02675989	      0.00575031	     13.66559795	    -14.40384287	     31.18905519	    -11.92207236	     13.97360953	     -7.02950753	    -11.93688034	    -58.61048632	    117.66957449	    -52.46038032	   -158.18713741	      5.47497153	      2.85878152	     21.22704124	     -9.99767170	    -31.24726828	     -8.35163918	    -27.71560784	      8.80091074	     56.37033808	     -2.46693457	     11.12066627	     23.76350461	     22.44797969	     15.38563494	    -11.09258681
      4.72000000	     -3.85138810	      2.07290202	     12.64661432	     -0.11310231	      1.02728848	      0.00554924	     13.49036670	    -15.17710950	     30.21023383	    -12.25951680	     12.87747176	     -6.20779580	    -12.47447322	    -59.41784614	    117.13763078	    -54.20333448	   -160.50826548	      6.18519131	      2.47201592	     20.80567704	     -9.58472200	    -30.57657322	     -8.75212639	    -27.75301395	      8.49153517	     56.14737340	     -2.23054589	     13.98376817	     24.22660162	     26.43489658	     16.75876932	    -13.38061781
      4.73000000	     -3.65082704	      2.13233892	     12.51650779	     -0.11335009	      1.02697513	      0.00597077	     13.20403751	    -14.64224592	     29.47651938	    -11.63212377	     12.39310366	     -6.25129355	    -12.87964259	    -59.44069929	    116.93327140	    -55.89712609	   -160.65429544	      6.61666057	      2.39362624	     20.53794466	     -9.40893220	    -30.14255756	     -8.98032260	    -27.88043807	      8.26803382	     55.99746991	     -2.34784900	     14.89597377	     25.43166855	     26.36726328	     16.67791160	    -13.65387097
      4.74000000	     -3.43761985	      2.12514312	     12.61290849	     -0.11368124	      1.02673283	      0.00618315	     12.95117350	    -14.22345391	     28.73237209	    -11.07217684	     11.81078977	     -6.21753863	    -13.40633992	    -59.75570023	    116.74863776	    -57.55838707	   -160.85094241	      7.07110504	      2.31457398	     20.24243778	     -9.15669019	    -29.66992328	     -9.39147771	    -28.24836218	      8.00981153	     55.75993269	     -2.65973021	     15.62688468	     27.10426383	     26.29268532	     16.65282003	    -14.03288996
      4.75000000	     -3.48052043	      2.09667257	     12.89219751	     -0.11442424	      1.02717279	      0.00634398	     12.88568486	    -14.63592377	     27.94456101	    -11.05837358	     10.68289492	     -5.70545882	    -14.15738739	    -60.40464490	    116.00251507	    -59.32113108	   -162.14328256	      7.70107784	      2.03317650	     19.95210752	     -9.20992348	    -29.19399396	     -9.67793377	    -28.92056436	      7.66854129	     56.27637043	     -4.06122535	     14.98038995	     29.86852468	     26.58927310	     17.43763199	    -14.41308268
